<svg width="863" height="398" viewBox="0 0 863 398" fill="none" xmlns="http://www.w3.org/2000/svg">
<path d="M7.284 162.61L78.028 233.37C87.3142 242.658 98.3391 250.027 110.473 255.054C122.607 260.081 135.613 262.668 148.747 262.668H159.777C172.911 262.668 185.917 265.255 198.051 270.282C210.185 275.309 221.21 282.678 230.496 291.966L306.214 367.702C315.5 376.99 326.525 384.359 338.659 389.386C350.793 394.413 363.799 397 376.933 397H598.604C626.111 397 648.409 374.701 648.409 347.195C648.409 333.988 643.164 321.322 633.826 311.982L580.991 259.134C573.632 251.774 573.634 239.84 580.994 232.481C584.528 228.948 589.321 226.963 594.319 226.963C604.727 226.963 613.165 218.525 613.165 208.117C613.165 203.12 611.18 198.327 607.647 194.792L499.571 86.691C490.285 77.4025 479.26 70.0343 467.125 65.0073C454.991 59.9803 441.985 57.3929 428.851 57.393H316.837C303.973 57.393 291.234 54.8587 279.349 49.935C267.464 45.0113 256.666 37.7946 247.57 28.697C238.474 19.599 227.675 12.382 215.79 7.4581C203.905 2.5342 191.166 -9.9997e-05 178.301 2.95928e-09H49.764C30.329 2.95928e-09 14.574 15.755 14.574 35.19C14.5741 44.5215 18.2804 53.4709 24.878 60.07L42.474 77.669C52.189 87.386 52.187 103.139 42.47 112.854C37.8045 117.518 31.4773 120.139 24.88 120.139C11.138 120.139 2.86239e-09 131.279 2.86239e-09 145.019C-9.99971e-05 151.616 2.62 157.944 7.284 162.61Z" fill="#2D314D"/>
<path fill-rule="evenodd" clip-rule="evenodd" d="M221.284 163.61L292.028 234.37C301.314 243.658 312.339 251.027 324.473 256.054C336.607 261.081 349.613 263.668 362.747 263.668H373.777C386.911 263.668 399.917 266.255 412.051 271.282C424.185 276.309 435.21 283.678 444.496 292.966L520.214 368.702C529.5 377.99 540.525 385.359 552.659 390.386C564.793 395.413 577.799 398 590.933 398H812.604C840.111 398 862.409 375.701 862.409 348.195C862.409 334.988 857.164 322.322 847.826 312.982L794.991 260.134C787.632 252.774 787.634 240.84 794.994 233.481C798.528 229.948 803.321 227.963 808.319 227.963C818.727 227.963 827.165 219.525 827.165 209.117C827.165 204.12 825.18 199.327 821.647 195.792L713.571 87.691C704.285 78.4025 693.26 71.0343 681.125 66.0073C668.991 60.9803 655.985 58.3929 642.851 58.393H530.837C517.973 58.393 505.234 55.8587 493.349 50.935C481.464 46.0113 470.666 38.7946 461.57 29.697C452.474 20.599 441.675 13.382 429.79 8.4581C417.905 3.5342 405.166 0.9999 392.301 1H263.764C244.329 1 228.574 16.755 228.574 36.19C228.574 45.5215 232.28 54.4709 238.878 61.07L256.473 78.669C266.188 88.386 266.186 104.139 256.469 113.854C251.803 118.518 245.476 121.139 238.879 121.139C225.137 121.139 213.999 132.279 213.999 146.019C213.999 152.616 216.619 158.943 221.283 163.609L221.284 163.61Z" fill="url(#paint0_linear_292_11)"/>
<defs>
<linearGradient id="paint0_linear_292_11" x1="213.999" y1="14348.2" x2="57915.4" y2="40474.4" gradientUnits="userSpaceOnUse">
<stop stop-color="#33D35E"/>
<stop offset="1" stop-color="#2AB6D9"/>
</linearGradient>
</defs>
</svg>
